<?xml version="1.0" encoding="UTF-8" standalone="no"?>
<!-- Created with Inkscape (http://www.inkscape.org/) -->

<svg
   width="210mm"
   height="297mm"
   viewBox="0 0 210 297"
   version="1.1"
   id="svg5"
   inkscape:version="1.1.1 (3bf5ae0d25, 2021-09-20)"
   sodipodi:docname="NGDM2022Icons.svg"
   inkscape:export-filename="C:\Users\Alex\NGDM2022Icons.png"
   inkscape:export-xdpi="96"
   inkscape:export-ydpi="96"
   xmlns:inkscape="http://www.inkscape.org/namespaces/inkscape"
   xmlns:sodipodi="http://sodipodi.sourceforge.net/DTD/sodipodi-0.dtd"
   xmlns="http://www.w3.org/2000/svg"
   xmlns:svg="http://www.w3.org/2000/svg">
  <sodipodi:namedview
     id="namedview7"
     pagecolor="#ffffff"
     bordercolor="#666666"
     borderopacity="1.0"
     inkscape:pageshadow="2"
     inkscape:pageopacity="0.0"
     inkscape:pagecheckerboard="0"
     inkscape:document-units="mm"
     showgrid="false"
     inkscape:zoom="8.385604"
     inkscape:cx="29.753373"
     inkscape:cy="159.02253"
     inkscape:window-width="1920"
     inkscape:window-height="1017"
     inkscape:window-x="-8"
     inkscape:window-y="32"
     inkscape:window-maximized="1"
     inkscape:current-layer="layer1" />
  <defs
     id="defs2">
    <linearGradient
       id="linearGradient9611"
       inkscape:swatch="solid">
      <stop
         style="stop-color:#00ff00;stop-opacity:1;"
         offset="0"
         id="stop9609" />
    </linearGradient>
  </defs>
  <g
     inkscape:label="Layer 1"
     inkscape:groupmode="layer"
     id="layer1">
    <path
       id="path12925"
       style="fill:#00ff00;fill-opacity:0;stroke:#23a218;stroke-linecap:round;stroke-opacity:1"
       d="m 15.929085,24.503636 c 0.0024,-0.344495 0.37334,-0.709953 0.440372,-1.124793 0.06703,-0.414841 -0.415272,-1.057551 -0.28985,-1.510334 0.125423,-0.452784 0.568527,-0.537157 0.746125,-0.995482 0.177598,-0.458325 0.04507,-1.022873 0.268622,-1.454337 0.223554,-0.431464 0.780881,-0.707533 1.04417,-1.079734 0.26329,-0.372201 0.388718,-1.04133 0.685523,-1.321866 0.296806,-0.280536 0.76499,-0.127858 1.089091,-0.284327 0.324102,-0.156469 0.593365,-0.398979 0.938543,-0.398979 0.345178,0 0.691085,0.256719 1.031159,0.436708 0.340074,0.179989 1.129368,0.436273 1.129368,0.436273 0.672746,0.370061 0.767856,1.189811 0.767856,1.189811 0.741217,0.986181 0.714653,0.412514 0.711803,1.007617 -0.0042,0.870621 0.427304,1.109721 0.459543,1.676953 0.02915,0.512955 0.322436,0.8841 0.685542,1.286478 0.309671,0.343165 0.05208,1.397944 0.05208,1.397944 0.177319,0.330818 0.334817,0.700487 0.27168,0.958921 -0.04096,0.167658 -0.279504,0.773269 -0.786175,0.282772 -0.296204,-0.286748 -0.902844,-0.05777 -1.259064,-0.235871 0,0 -1.265065,0.251875 -1.591185,0.78431 -0.369942,0.603981 -0.426253,1.148028 0.190553,2.8873 -2.313383,-0.02092 -2.918005,0.02486 -2.918005,0.02486 0.792024,-1.732951 0.427723,-2.20391 0.103289,-2.824411 -0.43681,-0.461978 -0.649776,0.0948 -1.371461,-0.647875 -0.328452,-0.338007 -0.816212,-0.513066 -1.142351,-0.24109 -0.552085,0.460399 -1.221335,0.247697 -1.257236,-0.250848 z"
       sodipodi:nodetypes="cssssssssscssssssssscccsscc" />
    <path
       id="path3911"
       style="fill:#ff0000;fill-opacity:0;stroke:#0f0fc8;stroke-linecap:round;stroke-opacity:1"
       d="m 39.016941,10.083911 c 0,2.761424 -2.238576,5 -5,5 -2.761424,0 -5,-2.238576 -5,-5 0,-2.7614238 3.312128,-4.9178755 5,-6.999911 1.847206,2.1143331 5,4.2384872 5,6.999911 z"
       sodipodi:nodetypes="ssscs" />
    <path
       id="path4682"
       style="fill:#ff0000;fill-opacity:0;stroke:#d62500;stroke-linecap:round;stroke-opacity:1"
       d="m 59.567627,13.406316 c 0,2.761424 -2.238576,5 -5,5 -2.761424,0 -5,-2.238576 -5,-5 0,-0.690356 1.057594,-4.863056 1.639913,-5.4415511 0.747772,1.2699471 0.608808,2.7721521 1.237536,3.6426761 0.193733,-0.709038 0.262142,-1.8265304 0.454023,-2.3773752 0.712941,0.7487321 0.552461,0.5764476 1.035576,0.9037472 0.192659,-0.7881264 0.336195,-3.9767997 0.677306,-4.4413666 0.461801,0.5285833 1.124208,1.6435684 1.516186,2.3113542 0.421541,0.7181505 0.586831,2.6990044 0.970231,3.4270664 0.919313,-0.534223 0.782132,-0.857608 1.378487,-1.7462956 0.324437,0.6205006 1.090742,3.0313886 1.090742,3.7217446 z"
       sodipodi:nodetypes="ssscccccsccs" />
    <path
       sodipodi:type="spiral"
       style="fill:none;fill-opacity:0;fill-rule:evenodd;stroke:#000000;stroke-width:11.3887;stroke-miterlimit:4;stroke-dasharray:none;stroke-dashoffset:0"
       id="path8319"
       sodipodi:cx="55.316475"
       sodipodi:cy="251.6225"
       sodipodi:expansion="1.5"
       sodipodi:revolution="2"
       sodipodi:radius="82.779785"
       sodipodi:argument="-11.301862"
       sodipodi:t0="0.1"
       d="m 53.186643,253.14444 c -4.124141,-0.31776 -4.403333,-5.90949 -3.006725,-8.71012 3.558881,-7.13666 13.364347,-6.87404 19.082483,-2.77735 10.492901,7.51752 9.536042,22.91835 1.809812,32.01436 -12.112406,14.25982 -34.175941,12.41559 -47.057743,0.31907 -18.4092583,-17.28702 -15.5085622,-46.90495 1.59182,-63.94482 22.991776,-22.91042 60.949102,-18.80536 82.49071,3.86082 27.73766,29.18571 22.29597,76.19378 -6.44594,102.55747 -6.316923,5.79423 -13.567387,10.55146 -21.374743,14.0858"
       transform="matrix(-0.00555881,0.08760489,-0.08765517,-0.00556201,95.553384,8.6462509)" />
    <g
       id="g13870"
       transform="translate(-21.596755,-18.027043)">
      <g
         id="g13864">
        <path
           id="rect1265"
           style="fill:#ff0000;fill-opacity:0;stroke:#3d3d57;stroke-linecap:round;stroke-linejoin:round;stroke-opacity:1"
           d="m 55.735621,44.450073 7.069767,6.303219 -2.08996,1.753685 z"
           sodipodi:nodetypes="cccc" />
        <path
           id="path13858"
           style="fill:#ff0000;fill-opacity:0;stroke:#3d3d57;stroke-linecap:round;stroke-linejoin:round;stroke-opacity:1"
           d="m 69.875155,44.450073 -4.979807,8.056904 -2.08996,-1.753685 z"
           sodipodi:nodetypes="cccc" />
      </g>
      <path
         id="path13860"
         style="fill:#ff0000;fill-opacity:0;stroke:#3d3d57;stroke-linecap:round;stroke-linejoin:round;stroke-opacity:1"
         d="m 62.805388,41.499704 1.364125,9.372904 h -2.72825 z"
         sodipodi:nodetypes="cccc" />
    </g>
    <path
       sodipodi:type="star"
       style="fill:#ff0000;fill-opacity:0;stroke:#000000;stroke-width:3.77953;stroke-linecap:round;stroke-opacity:1"
       id="path878"
       inkscape:flatsided="false"
       sodipodi:sides="5"
       sodipodi:cx="31.482527"
       sodipodi:cy="155.98161"
       sodipodi:r1="11.46805"
       sodipodi:r2="5.734025"
       sodipodi:arg1="-0.26179939"
       sodipodi:arg2="0.36651914"
       inkscape:rounded="0"
       inkscape:randomized="0"
       d="m 42.559812,153.01346 -5.724112,5.02304 0.892774,7.56303 -6.546043,-3.89175 -6.916982,3.18618 1.678435,-7.42827 -5.167704,-5.59386 7.583373,-0.69917 3.723165,-6.64338 3.008348,6.99616 z"
       transform="matrix(-0.22095042,-0.14555156,0.14555156,-0.22095042,-7.4175371,80.316668)"
       inkscape:transform-center-x="-0.0061370656"
       inkscape:transform-center-y="-0.28390424"
       inkscape:export-filename="C:\Users\Alex\Projects\NaGaDeMon2022\Icons\Star.png"
       inkscape:export-xdpi="96"
       inkscape:export-ydpi="96" />
  </g>
</svg>
