<?xml version="1.0" encoding="UTF-8" standalone="no"?>
<!-- Created with Inkscape (http://www.inkscape.org/) -->

<svg
   width="8.5in"
   height="11in"
   viewBox="0 0 215.9 279.4"
   version="1.1"
   id="svg837"
   inkscape:version="1.1.1 (3bf5ae0d25, 2021-09-20)"
   sodipodi:docname="CardBacks.svg"
   xmlns:inkscape="http://www.inkscape.org/namespaces/inkscape"
   xmlns:sodipodi="http://sodipodi.sourceforge.net/DTD/sodipodi-0.dtd"
   xmlns:xlink="http://www.w3.org/1999/xlink"
   xmlns="http://www.w3.org/2000/svg"
   xmlns:svg="http://www.w3.org/2000/svg">
  <sodipodi:namedview
     id="namedview839"
     pagecolor="#ffffff"
     bordercolor="#666666"
     borderopacity="1.0"
     inkscape:pageshadow="2"
     inkscape:pageopacity="0.0"
     inkscape:pagecheckerboard="0"
     inkscape:document-units="in"
     showgrid="false"
     inkscape:zoom="1.4142136"
     inkscape:cx="-149.19953"
     inkscape:cy="268.34702"
     inkscape:window-width="1920"
     inkscape:window-height="1017"
     inkscape:window-x="-8"
     inkscape:window-y="32"
     inkscape:window-maximized="1"
     inkscape:current-layer="layer4"
     units="in" />
  <defs
     id="defs834">
    <marker
       style="overflow:visible"
       id="Arrow1Lstart"
       refX="0.0"
       refY="0.0"
       orient="auto"
       inkscape:stockid="Arrow1Lstart"
       inkscape:isstock="true">
      <path
         transform="scale(0.8) translate(12.5,0)"
         style="fill-rule:evenodd;fill:context-stroke;stroke:context-stroke;stroke-width:1.0pt"
         d="M 0.0,0.0 L 5.0,-5.0 L -12.5,0.0 L 5.0,5.0 L 0.0,0.0 z "
         id="path4008" />
    </marker>
    <marker
       style="overflow:visible;"
       id="Arrow1Lend"
       refX="0.0"
       refY="0.0"
       orient="auto"
       inkscape:stockid="Arrow1Lend"
       inkscape:isstock="true">
      <path
         transform="scale(0.8) rotate(180) translate(12.5,0)"
         style="fill-rule:evenodd;fill:context-stroke;stroke:context-stroke;stroke-width:1.0pt;"
         d="M 0.0,0.0 L 5.0,-5.0 L -12.5,0.0 L 5.0,5.0 L 0.0,0.0 z "
         id="path4011" />
    </marker>
    <linearGradient
       inkscape:collect="always"
       id="linearGradient29714">
      <stop
         style="stop-color:#e5ffff;stop-opacity:1"
         offset="0"
         id="stop29710" />
      <stop
         style="stop-color:#313e3e;stop-opacity:1"
         offset="1"
         id="stop29712" />
    </linearGradient>
    <linearGradient
       inkscape:collect="always"
       id="linearGradient17344">
      <stop
         style="stop-color:#000000;stop-opacity:1"
         offset="0"
         id="stop17340" />
      <stop
         style="stop-color:#ffffff;stop-opacity:1"
         offset="1"
         id="stop17342" />
    </linearGradient>
    <linearGradient
       inkscape:collect="always"
       id="linearGradient11332">
      <stop
         style="stop-color:#b4b4c8;stop-opacity:1"
         offset="0"
         id="stop11328" />
      <stop
         style="stop-color:#0f0f14;stop-opacity:0.99607843"
         offset="1"
         id="stop11330" />
    </linearGradient>
    <linearGradient
       inkscape:collect="always"
       id="linearGradient10804">
      <stop
         style="stop-color:#008de8;stop-opacity:1"
         offset="0"
         id="stop10800" />
      <stop
         style="stop-color:#003ec8;stop-opacity:0.99607843"
         offset="1"
         id="stop10802" />
    </linearGradient>
    <linearGradient
       inkscape:collect="always"
       id="linearGradient9946">
      <stop
         style="stop-color:#00ef25;stop-opacity:1"
         offset="0"
         id="stop9942" />
      <stop
         style="stop-color:#00820d;stop-opacity:0.99607843"
         offset="1"
         id="stop9944" />
    </linearGradient>
    <linearGradient
       inkscape:collect="always"
       id="linearGradient8936-8">
      <stop
         style="stop-color:#ff9425;stop-opacity:1"
         offset="0"
         id="stop8932" />
      <stop
         style="stop-color:#ff200d;stop-opacity:0.99533808"
         offset="1"
         id="stop8934" />
    </linearGradient>
    <linearGradient
       id="linearGradient4054"
       inkscape:swatch="solid">
      <stop
         style="stop-color:#000000;stop-opacity:1;"
         offset="0"
         id="stop4052" />
    </linearGradient>
    <linearGradient
       id="linearGradient4011"
       inkscape:swatch="solid">
      <stop
         style="stop-color:#ff0000;stop-opacity:1;"
         offset="0"
         id="stop4009" />
    </linearGradient>
    <radialGradient
       inkscape:collect="always"
       xlink:href="#linearGradient8936-8"
       id="radialGradient8938"
       cx="27.78125"
       cy="38.695312"
       fx="27.78125"
       fy="38.695312"
       r="3.2940625"
       gradientUnits="userSpaceOnUse"
       gradientTransform="translate(-0.43691179,0.2987084)" />
    <radialGradient
       inkscape:collect="always"
       xlink:href="#linearGradient9946"
       id="radialGradient9918"
       gradientUnits="userSpaceOnUse"
       cx="27.78125"
       cy="38.695312"
       fx="27.78125"
       fy="38.695312"
       r="3.2940625"
       gradientTransform="translate(7.1510895,0.2987084)" />
    <radialGradient
       inkscape:collect="always"
       xlink:href="#linearGradient10804"
       id="radialGradient10704"
       gradientUnits="userSpaceOnUse"
       cx="27.78125"
       cy="38.695312"
       fx="27.78125"
       fy="38.695312"
       r="3.2940625"
       gradientTransform="translate(7.1510893,7.8867069)" />
    <radialGradient
       inkscape:collect="always"
       xlink:href="#linearGradient11332"
       id="radialGradient10952"
       gradientUnits="userSpaceOnUse"
       gradientTransform="translate(-0.43672491,7.8867079)"
       cx="27.78125"
       cy="38.695312"
       fx="27.78125"
       fy="38.695312"
       r="3.2940625" />
    <linearGradient
       inkscape:collect="always"
       xlink:href="#linearGradient17344"
       id="linearGradient13723"
       x1="21.665956"
       y1="48.973244"
       x2="21.665956"
       y2="43.304516"
       gradientUnits="userSpaceOnUse" />
    <linearGradient
       inkscape:collect="always"
       xlink:href="#linearGradient17344"
       id="linearGradient16092"
       x1="24.392307"
       y1="17.110323"
       x2="30.657082"
       y2="17.110323"
       gradientUnits="userSpaceOnUse" />
    <linearGradient
       inkscape:collect="always"
       xlink:href="#linearGradient17344"
       id="linearGradient16194"
       x1="39.427319"
       y1="48.973244"
       x2="39.427319"
       y2="43.402706"
       gradientUnits="userSpaceOnUse" />
    <linearGradient
       inkscape:collect="always"
       xlink:href="#linearGradient17344"
       id="linearGradient16394"
       x1="24.392307"
       y1="69.920921"
       x2="30.87318"
       y2="69.920921"
       gradientUnits="userSpaceOnUse" />
    <radialGradient
       inkscape:collect="always"
       xlink:href="#linearGradient29714"
       id="radialGradient29486"
       cx="30.546638"
       cy="43.515625"
       fx="30.546638"
       fy="43.515625"
       r="7.4730291"
       gradientTransform="matrix(0.93215684,0,0,0.93159069,2.6864995,3.2327658)"
       gradientUnits="userSpaceOnUse" />
  </defs>
  <g
     inkscape:label="Background"
     inkscape:groupmode="layer"
     id="layer1"
     sodipodi:insensitive="true">
    <rect
       style="fill:#c1a96a;fill-opacity:1;stroke:#000000;stroke-width:1.42118;stroke-linecap:round"
       id="rect924"
       width="62.078815"
       height="87.478813"
       x="0.1213494"
       y="0.032106608"
       ry="0" />
  </g>
  <g
     inkscape:groupmode="layer"
     id="layer3"
     inkscape:label="Decor"
     style="display:inline">
    <g
       id="g3064"
       transform="translate(0.61411921,0.25588889)">
      <path
         id="rect1028"
         style="fill:url(#linearGradient16092);fill-opacity:1;stroke:#000000;stroke-linecap:round"
         d="m 30.477014,-0.6008674 5.5,35.0000004 -5.5,1.999867 -5.5,-1.999867 z"
         sodipodi:nodetypes="ccccc" />
      <path
         id="path2574"
         style="fill:url(#linearGradient16394);fill-opacity:1;stroke:#000000;stroke-linecap:round"
         d="m 30.477014,87.632116 -5.5,-35 5.5,-2.000116 5.5,2.000116 z"
         sodipodi:nodetypes="ccccc" />
      <path
         id="path12510"
         style="fill:url(#linearGradient16194);fill-opacity:1;stroke:#000000;stroke-width:0.766958;stroke-linecap:round"
         d="M 60.175087,43.515624 39.42732,48.973243 37.427,43.515624 39.42732,38.058005 Z"
         sodipodi:nodetypes="ccccc" />
      <path
         id="path12512"
         style="fill:url(#linearGradient13723);fill-opacity:1;stroke:#000000;stroke-width:0.766958;stroke-linecap:round"
         d="M 0.91818885,43.515624 21.665956,38.058005 23.666,43.515624 21.665956,48.973243 Z"
         sodipodi:nodetypes="ccccc" />
    </g>
  </g>
  <g
     inkscape:groupmode="layer"
     id="layer5"
     inkscape:label="SilverCenter"
     style="display:none"
     sodipodi:insensitive="true">
    <ellipse
       style="opacity:1;fill:url(#radialGradient29486);fill-opacity:1;fill-rule:nonzero;stroke:#000000;stroke-width:0.703921;stroke-linecap:round;stroke-miterlimit:4;stroke-dasharray:none;stroke-dashoffset:0;stroke-opacity:1"
       id="path29320"
       cx="31.160757"
       cy="43.771515"
       rx="6.6700749"
       ry="6.6711397" />
  </g>
  <g
     inkscape:groupmode="layer"
     id="layer4"
     inkscape:label="StandardCenter"
     style="display:inline">
    <g
       id="g29996"
       transform="translate(0.68387896,0.2558901)">
      <circle
         style="mix-blend-mode:normal;fill:url(#radialGradient8938);fill-opacity:1;fill-rule:nonzero;stroke:#000000;stroke-width:0.635;stroke-linecap:round;stroke-miterlimit:4;stroke-dasharray:none;stroke-dashoffset:0"
         id="path4424"
         cx="26.682878"
         cy="39.721622"
         r="2.9765625" />
      <circle
         style="mix-blend-mode:normal;fill:url(#radialGradient9918);fill-opacity:1;fill-rule:nonzero;stroke:#000000;stroke-width:0.635;stroke-linecap:round;stroke-miterlimit:4;stroke-dasharray:none;stroke-dashoffset:0"
         id="circle9916"
         cx="34.270878"
         cy="39.721622"
         r="2.9765625" />
      <circle
         style="mix-blend-mode:normal;fill:url(#radialGradient10704);fill-opacity:1;fill-rule:nonzero;stroke:#000000;stroke-width:0.635;stroke-linecap:round;stroke-miterlimit:4;stroke-dasharray:none;stroke-dashoffset:0"
         id="circle10702"
         cx="34.270878"
         cy="47.309624"
         r="2.9765625" />
      <circle
         style="mix-blend-mode:normal;fill:url(#radialGradient10952);fill-opacity:1;fill-rule:nonzero;stroke:#000000;stroke-width:0.635;stroke-linecap:round;stroke-miterlimit:4;stroke-dasharray:none;stroke-dashoffset:0;stroke-opacity:1"
         id="circle10950"
         cx="26.683062"
         cy="47.309624"
         r="2.9765625" />
    </g>
  </g>
  <g
     inkscape:groupmode="layer"
     id="layer2"
     inkscape:label="ScrollCenter"
     style="display:none"
     sodipodi:insensitive="true">
    <g
       id="g7743">
      <rect
         style="fill:#d0d3c3;fill-opacity:1;stroke:#000000;stroke-width:0.762;stroke-linecap:round;stroke-linejoin:round;stroke-miterlimit:4;stroke-dasharray:1.524, 0.762, 0.381, 0.762;stroke-dashoffset:0;stroke-opacity:1"
         id="rect5258"
         width="11.599497"
         height="11.599497"
         x="25.36101"
         y="37.971764" />
      <g
         id="g7404"
         transform="translate(0.62257032,0.7034826)">
        <path
           style="fill:none;stroke:#000000;stroke-width:0.264583px;stroke-linecap:butt;stroke-linejoin:miter;stroke-opacity:1"
           d="m 25.724691,39.124916 c 0.03898,0.0078 0.07795,0.01558 0.116931,0.02339 0.01559,0.01558 0.02585,0.0398 0.04677,0.04677 0.02958,0.0099 0.06268,-0.0044 0.09354,0 0.224373,0.03205 0.448914,0.0053 0.678195,-0.02339 0.04047,-0.0051 0.105082,0.01762 0.140317,0 0.115649,-0.05783 0.181996,-0.04677 0.350792,-0.04677"
           id="path7021" />
        <path
           style="fill:none;stroke:#000000;stroke-width:0.264583px;stroke-linecap:butt;stroke-linejoin:miter;stroke-opacity:1"
           d="m 26.402887,39.265232 c -0.04155,0.207751 -0.01871,0.114017 -0.11693,0.42095 -0.06511,0.203457 -0.156759,0.338738 -0.11693,0.537879 0.0031,0.01529 -0.01217,0.03703 0,0.04677 0.08223,0.06578 0.549807,0.140264 0.654809,0.11693 0.05775,-0.01283 0.181505,-0.10555 0.210476,-0.140316 0.03193,-0.03832 0.02339,-0.242263 0.02339,-0.30402"
           id="path7025" />
        <path
           style="fill:none;stroke:#000000;stroke-width:0.264583px;stroke-linecap:butt;stroke-linejoin:miter;stroke-opacity:1"
           d="m 27.852825,39.101529 c 0,0.07016 0.0041,0.140439 0,0.210476 -0.0254,0.431761 -0.0092,0.0173 -0.04677,0.280633 -0.0086,0.06015 0.01191,0.127543 0,0.18709 -0.03178,0.158885 -0.07195,0.330986 -0.140317,0.46772 -0.01024,0.02048 -0.04931,0.161168 -0.02339,0.187089 0.01341,0.01342 0.210476,0.01122 0.210476,0.07016"
           id="path7027" />
        <path
           style="fill:none;stroke:#000000;stroke-width:0.264583px;stroke-linecap:butt;stroke-linejoin:miter;stroke-opacity:1"
           d="m 28.484248,39.195076 c 0.159279,0.04307 0.324252,0.08532 0.491109,0.07016 0.274063,-0.02492 0.04787,-0.02339 0.140316,-0.02339 0.07795,0 0.155908,0 0.23386,0 0.0078,0 0.0289,-0.0055 0.02339,0 -0.04751,0.04752 -0.139573,0.06942 -0.187087,0.116933 -0.03214,0.03214 -0.04558,0.0787 -0.07016,0.11693 -0.182349,0.283652 -0.370901,0.573071 -0.53788,0.865285 -0.01222,0.0214 -0.0097,0.04965 -0.02339,0.07016 -0.0097,0.0145 -0.03445,0.01106 -0.04677,0.02339"
           id="path7029" />
        <path
           style="fill:none;stroke:#000000;stroke-width:0.264583px;stroke-linecap:butt;stroke-linejoin:miter;stroke-opacity:1"
           d="m 30.542224,39.171689 c -0.199665,0.04983 -0.398182,0.235098 -0.491109,0.420949 -0.007,0.01394 0.007,0.03283 0,0.04677 -0.0035,0.007 -0.0199,-0.007 -0.02339,0 -0.007,0.01394 0.0049,0.03198 0,0.04677 -0.01016,0.0305 -0.05984,0.05984 -0.07016,0.07016 -0.105,0.104998 0.410561,0.0044 0.420949,0 0.02582,-0.01106 0.0435,-0.03788 0.07016,-0.04677 0.02643,-0.0088 0.11693,-0.0078 0.11693,-0.02339 0,-0.0069 -0.06321,0.0027 -0.140317,0.04677 -0.07983,0.04562 -0.306022,0.376846 -0.374179,0.467723 -0.04654,0.06205 1.11e-4,-5.6e-5 -0.04677,0.02339 -0.05842,0.02921 -0.0681,0.08943 -0.09355,0.140316 -0.0088,0.01765 -0.07016,0.05138 -0.07016,0.07016 0,0.0078 0.01558,0 0.02339,0"
           id="path7031" />
        <path
           style="fill:none;stroke:#000000;stroke-width:0.264583px;stroke-linecap:butt;stroke-linejoin:miter;stroke-opacity:1"
           d="m 31.197034,39.124916 c -0.02432,0.214789 0.03056,0.440912 0,0.654812 -0.01,0.06982 -0.02339,0.0742 -0.02339,0.140316 0,0.08445 0.02088,0.197149 0,0.280633 -0.0031,0.01254 -0.01717,0.18088 -0.02339,0.187087 -0.02178,0.02178 -0.02339,-0.0019 -0.02339,0.04677"
           id="path7033" />
        <path
           style="fill:none;stroke:#000000;stroke-width:0.264583px;stroke-linecap:butt;stroke-linejoin:miter;stroke-opacity:1"
           d="m 31.360737,39.849885 c 0.177003,0.01278 0.36119,0.04677 0.537879,0.04677"
           id="path7035" />
        <path
           style="fill:none;stroke:#000000;stroke-width:0.264583px;stroke-linecap:butt;stroke-linejoin:miter;stroke-opacity:1"
           d="m 32.553428,39.124916 c 0.07715,0.1543 0.008,0.0487 0.163703,0.187089 0.03118,0.03118 0.06236,0.06236 0.09354,0.09354 0.03118,0.01558 0.06676,0.02445 0.09354,0.04677 0.02159,0.01799 0.0269,0.05028 0.04677,0.07016 0.01741,0.01744 0.08033,0.03356 0.09354,0.04677 0.01103,0.01103 -0.01103,0.03575 0,0.04677 0.03961,0.03961 0.100595,0.05382 0.140317,0.09354 0.02273,0.02273 -0.06598,0.0069 -0.09354,0.02339 -0.07845,0.04707 -0.150561,0.122052 -0.233859,0.163703 -0.130387,0.06519 -0.271365,0.208261 -0.350793,0.327403 -0.03518,0.05277 -0.06844,0.04505 -0.09354,0.07016 -0.01217,0.01217 0,0.07377 0,0.09354"
           id="path7037" />
        <path
           style="fill:none;stroke:#000000;stroke-width:0.264583px;stroke-linecap:butt;stroke-linejoin:miter;stroke-opacity:1"
           d="m 33.839663,39.218462 c 0.02376,0.324146 -0.04677,0.637664 -0.04677,0.958829 0,0.03968 -0.03896,0.109159 -0.02339,0.140316 0.0286,0.05721 0.102298,0.02143 0.140316,0.04677 0.0145,0.0097 0.0089,0.0371 0.02339,0.04677 0.003,0.0019 0.08322,0.02339 0.09354,0.02339"
           id="path7039" />
        <path
           style="fill:none;stroke:#000000;stroke-width:0.264583px;stroke-linecap:butt;stroke-linejoin:miter;stroke-opacity:1"
           d="m 35.359758,39.335392 c -0.190551,0.07314 -0.234617,0.285266 -0.327406,0.444336 -0.02516,0.04311 -0.07122,0.07228 -0.09354,0.11693 -0.02537,0.05076 -0.02138,0.112943 -0.04677,0.163703 -0.04255,0.08511 -0.126219,0.146399 -0.163703,0.23386 -0.01265,0.02954 -0.01072,0.064 -0.02339,0.09354 -0.035,0.08167 -0.115747,0.138547 -0.1637,0.210476 -0.02868,0.04302 -0.01344,0.06022 -0.04677,0.09354"
           id="path7041" />
        <path
           style="fill:none;stroke:#000000;stroke-width:0.264583px;stroke-linecap:butt;stroke-linejoin:miter;stroke-opacity:1"
           d="m 34.821878,40.060361 c -0.05067,0.009 -0.07216,-0.141319 -0.116932,-0.163703 -0.01394,-0.007 -0.03575,0.01103 -0.04677,0 -0.0055,-0.0055 0.0055,-0.01789 0,-0.02339 -0.01103,-0.01103 -0.03283,0.007 -0.04677,0 -0.06663,-0.03332 -0.09803,-0.06386 -0.187089,-0.09354 -0.01479,-0.0049 -0.03575,0.01103 -0.04677,0 -0.02331,-0.02331 0.01476,-0.150767 0.02339,-0.163703 0.04302,-0.06454 0.327404,-0.357724 0.327404,-0.397563"
           id="path7043" />
        <path
           style="fill:none;stroke:#000000;stroke-width:0.264583px;stroke-linecap:butt;stroke-linejoin:miter;stroke-opacity:1"
           d="m 26.519817,41.673999 c -0.328922,0.230246 -0.144604,0.07233 -0.374177,0.327406 -0.04955,0.05506 -0.130481,0.172736 -0.187088,0.210473 -0.0044,0.0029 -0.09115,0.02098 -0.09354,0.02339 -0.01745,0.01746 0.01917,0.04185 0.02339,0.04677 0.102317,0.119369 0.195038,0.239159 0.327405,0.327406 0.03647,0.02431 0.115461,0.0453 0.140317,0.07016 0.0055,0.0055 -0.0055,0.01788 0,0.02339 0.04113,0.04113 0.128622,0.08185 0.163701,0.11693 0.01712,0.01712 0.04244,0.06583 0.07016,0.09354 0.01103,0.01103 0.03575,0.01103 0.04677,0 0.0755,-0.0755 0.118542,-0.212087 0.187087,-0.280633 0.04406,-0.04406 0.109257,-0.0782 0.140317,-0.140316 0.0035,-0.007 0,-0.01558 0,-0.02339 0.0078,-0.01558 0.01373,-0.03227 0.02339,-0.04677 0.0172,-0.0258 0.05635,-0.04253 0.07016,-0.07016 0.0093,-0.01857 0.101406,-0.07005 0.07016,-0.11693 -0.02371,-0.03555 -0.161684,-0.138298 -0.163703,-0.140316 -0.01987,-0.01987 -0.0269,-0.05029 -0.04677,-0.07016 -0.0365,-0.0365 -0.09957,-0.06095 -0.140316,-0.09355 -0.09851,-0.07881 -0.175258,-0.158856 -0.257249,-0.257247 z"
           id="path7047" />
        <path
           style="fill:none;stroke:#000000;stroke-width:0.264583px;stroke-linecap:butt;stroke-linejoin:miter;stroke-opacity:1"
           d="m 27.665735,42.094949 c 0.04143,-0.191294 0.229558,-0.274178 0.327406,-0.42095 0.02418,-0.03629 -0.03973,-0.01521 0.02339,-0.04677 0.01394,-0.007 0.03575,0.01103 0.04677,0 0.03886,-0.03887 0.025,-0.140316 0.116932,-0.140316"
           id="path7049" />
        <path
           style="fill:none;stroke:#000000;stroke-width:0.264583px;stroke-linecap:butt;stroke-linejoin:miter;stroke-opacity:1"
           d="m 27.852825,42.562671 c 0.05567,-0.0334 0.161758,-0.0916 0.210473,-0.140316 0.06412,-0.06412 0.125738,-0.181314 0.163703,-0.257247 0.03422,-0.06843 0.257247,-0.245528 0.257247,-0.304019"
           id="path7051" />
        <path
           style="fill:none;stroke:#000000;stroke-width:0.264583px;stroke-linecap:butt;stroke-linejoin:miter;stroke-opacity:1"
           d="m 29.419693,41.440139 c 0.03849,0.17221 0.04688,0.74825 -0.07016,0.865286 -0.01987,0.01987 -0.05028,0.0269 -0.07016,0.04677 -0.05879,0.05879 -0.05047,0.09601 -0.11693,0.140316 -0.03773,0.02516 -0.161689,0.141325 -0.210476,0.116933 -0.126201,-0.0631 -0.0934,-0.420949 0,-0.420949"
           id="path7053" />
        <path
           style="fill:none;stroke:#000000;stroke-width:0.264583px;stroke-linecap:butt;stroke-linejoin:miter;stroke-opacity:1"
           d="m 29.887415,42.562671 c 0.05457,-0.06236 0.114697,-0.120266 0.1637,-0.18709 0.03717,-0.05068 0.05584,-0.113424 0.09355,-0.163703 0.03307,-0.04409 0.0825,-0.07389 0.11693,-0.116929 0.09246,-0.115578 0.193133,-0.269333 0.257247,-0.397563 0.04866,-0.09733 -0.0016,0.025 0.04677,-0.02339 0.04193,-0.04192 0.09354,-0.138935 0.09354,-0.210473"
           id="path7057" />
        <path
           style="fill:none;stroke:#000000;stroke-width:0.264583px;stroke-linecap:butt;stroke-linejoin:miter;stroke-opacity:1"
           d="m 30.401908,42.165108 c -0.01527,0.135821 0.210473,0.292423 0.210473,0.397563"
           id="path7059" />
        <path
           style="fill:none;stroke:#000000;stroke-width:0.264583px;stroke-linecap:butt;stroke-linejoin:miter;stroke-opacity:1"
           d="m 31.40751,41.557069 c -0.0019,0.10051 0.537879,0.06207 0.537879,0.07016 0,0.01744 -0.0137,0.03227 -0.02339,0.04677 -0.06837,0.102555 -0.144034,0.200205 -0.210473,0.30402 -0.114978,0.179649 -0.221917,0.376658 -0.327406,0.561265 -0.07166,0.125405 0.01407,0.0327 -0.04677,0.09354"
           id="path7063" />
        <path
           style="fill:none;stroke:#000000;stroke-width:0.264583px;stroke-linecap:butt;stroke-linejoin:miter;stroke-opacity:1"
           d="m 32.296182,42.586058 c 0.273293,-0.08253 0.560038,-0.07016 0.841898,-0.07016"
           id="path7065" />
        <path
           style="fill:none;stroke:#000000;stroke-width:0.264583px;stroke-linecap:butt;stroke-linejoin:miter;stroke-opacity:1"
           d="m 32.693745,41.954632 c 0.03817,-0.182047 0.02339,-0.374671 0.02339,-0.561266"
           id="path7067" />
        <path
           style="fill:none;stroke:#000000;stroke-width:0.264583px;stroke-linecap:butt;stroke-linejoin:miter;stroke-opacity:1"
           d="m 33.863047,41.580456 c 0.0564,0.0688 0.104796,0.198339 0.163703,0.257246 0.0055,0.0055 0.01789,-0.0055 0.02339,0 0.0078,0.0078 0.01558,0.06236 0.02339,0.07016 0.0393,0.0393 0.115893,0.08133 0.18709,0.11693 0.03118,0.01558 0.05972,0.03832 0.09354,0.04677 0.0227,0.0057 0.05362,-0.01654 0.07016,0 0.0089,0.0089 -0.24102,0.158295 -0.257246,0.163703 -0.01479,0.0049 -0.0338,-0.0087 -0.04677,0 -0.03243,0.02162 -0.03773,0.07192 -0.07016,0.09355 -0.02901,0.01934 -0.06454,0.02743 -0.09354,0.04677 -0.05677,0.03784 -0.0806,0.103982 -0.11693,0.140317 -0.0055,0.0055 -0.01558,0 -0.02339,0 -0.0078,0.01558 -0.01106,0.03445 -0.02339,0.04677 -0.0055,0.0055 -0.02339,-0.0078 -0.02339,0 0,0.02339 0.04747,-0.0057 0.07016,0 0.04783,0.01196 0.04776,0.02339 0.09354,0.02339 0.07222,0 0.0797,-0.03293 0.11693,-0.07016 0.01103,-0.01103 0.03575,0.01103 0.04677,0 0.0055,-0.0055 -0.0055,-0.01789 0,-0.02339 0.0097,-0.0097 0.321767,-0.02339 0.374176,-0.02339"
           id="path7069" />
        <path
           style="fill:none;stroke:#000000;stroke-width:0.264583px;stroke-linecap:butt;stroke-linejoin:miter;stroke-opacity:1"
           d="m 26.04926,45.296735 c 0.05572,0.226568 -0.0323,0.399833 -0.07016,0.608039 -0.007,0.03835 0.0048,0.07825 0,0.11693 -0.0093,0.07474 -0.05916,0.133514 -0.07016,0.210473 -0.0035,0.02421 -0.05222,0.332849 -0.07016,0.350793 -0.0055,0.0055 -0.0199,-0.007 -0.02339,0 -0.02586,0.05173 0.008,0.187759 0.02339,0.23386 0.01538,0.04613 0.07016,0.05604 0.07016,0.09354"
           id="path7077" />
        <path
           style="fill:none;stroke:#000000;stroke-width:0.264583px;stroke-linecap:butt;stroke-linejoin:miter;stroke-opacity:1"
           d="m 26.63391,45.460437 c 0.01558,0.03118 0.03304,0.0615 0.04677,0.09354 0.02246,0.05243 0.03486,0.116642 0.07016,0.163703 0.01974,0.02633 0.08235,0.08335 0.09355,0.11693 0.0049,0.01479 -0.0087,0.0338 0,0.04677 0.05374,0.08062 0.04677,-0.01807 0.04677,0.04677"
           id="path7079" />
        <path
           style="fill:none;stroke:#000000;stroke-width:0.264583px;stroke-linecap:butt;stroke-linejoin:miter;stroke-opacity:1"
           d="m 26.89116,45.92815 c -0.135514,0.406548 0.0406,-0.05207 -0.116933,0.210484 -0.02777,0.04629 -0.01016,0.138271 -0.04677,0.187089 -0.0092,0.01222 -0.0673,0.04105 -0.07016,0.04677 -0.007,0.01394 0.007,0.03283 0,0.04677 -0.03118,0.06236 -0.02339,-0.07016 -0.02339,0.02339 0.04438,0.158125 0.207316,0.232806 0.350796,0.280633 0.01479,0.0049 0.03283,-0.007 0.04677,0 0.04281,0.0214 0.07657,0.09354 0.116931,0.09354 0.03898,-0.04677 0.07388,-0.09726 0.116932,-0.140312 0.01233,-0.01233 0.03445,-0.01106 0.04677,-0.02339 0.02969,-0.02969 0.04754,-0.117699 0.07016,-0.140316 0.0291,-0.0291 0.08462,-0.05232 0.116931,-0.116931 0.007,-0.01394 -0.007,-0.03283 0,-0.04677 0.02209,-0.04419 0.07016,-0.02135 0.07016,-0.07016 -0.01559,-0.05457 -0.03564,-0.108051 -0.04677,-0.163699 -0.01857,-0.09284 -0.03998,-0.143314 -0.07016,-0.233861 -0.0049,-0.01479 0.0086,-0.0338 0,-0.04677 -0.0097,-0.0145 -0.0371,-0.0089 -0.04677,-0.02339 -0.0173,-0.02594 0.0099,-0.06396 0,-0.09354 -0.0289,-0.08669 -0.02339,0.02851 -0.02339,-0.04677"
           id="path7081" />
        <path
           style="fill:none;stroke:#000000;stroke-width:0.264583px;stroke-linecap:butt;stroke-linejoin:miter;stroke-opacity:1"
           d="m 28.200779,45.717684 c -0.01683,0.254008 0.06627,0.514448 0.02339,0.77174 -0.01873,0.112358 -0.09354,0.213156 -0.09354,0.327406"
           id="path7083" />
        <path
           style="fill:none;stroke:#000000;stroke-width:0.264583px;stroke-linecap:butt;stroke-linejoin:miter;stroke-opacity:1"
           d="m 28.317709,46.052586 c 0.128952,-0.02281 0.242141,-0.09354 0.374179,-0.09354"
           id="path7085" />
        <path
           style="fill:none;stroke:#000000;stroke-width:0.264583px;stroke-linecap:butt;stroke-linejoin:miter;stroke-opacity:1"
           d="m 29.370085,45.624139 c -0.05398,0.223409 -0.20633,0.389276 -0.30402,0.584652 -0.0071,0.01413 0.01082,0.05935 0,0.07016 -0.0055,0.0055 -0.02339,-0.0078 -0.02339,0 0,0.03486 0.0615,-0.03304 0.09354,-0.04677 0.113888,-0.04881 0.06311,-0.009 0.163703,-0.02339 0.05767,-0.0082 0.230304,-0.08821 0.18709,-0.02339 -0.06832,0.102481 -0.514496,0.630825 -0.514496,0.654812"
           id="path7087" />
        <path
           style="fill:none;stroke:#000000;stroke-width:0.264583px;stroke-linecap:butt;stroke-linejoin:miter;stroke-opacity:1"
           d="m 30.141824,45.670911 c 0.07256,0.09152 0.104486,0.205325 0.163703,0.30402 0.05674,0.09456 0.146174,0.148127 0.210473,0.233862 0.04548,0.06064 -0.163301,0.186786 -0.163703,0.187087 -0.05808,0.04356 -0.118999,0.08071 -0.1637,0.140317 -0.09277,0.123692 -0.1733,0.248256 -0.257249,0.374179 -0.02641,0.03962 -0.07016,0.02476 -0.07016,0.07016"
           id="path7089" />
        <path
           style="fill:none;stroke:#000000;stroke-width:0.264583px;stroke-linecap:butt;stroke-linejoin:miter;stroke-opacity:1"
           d="m 31.147425,45.741071 c 0.0141,0.0086 -0.0223,0.661471 0,0.678196 0.101063,0.07579 0.171518,0.04807 0.304019,0.07016 0.08813,0.01468 0.06427,0.01749 0.09354,0.04677 0.02689,0.02689 0.285636,-0.02365 0.116932,0.11693 -0.02994,0.02495 -0.0597,0.05082 -0.09355,0.07016 -0.0214,0.01222 -0.04875,0.01117 -0.07016,0.02339 -0.124182,0.07096 -0.223141,0.193421 -0.350792,0.257247 -0.01394,0.007 -0.0398,0.01394 -0.04677,0 -0.01246,-0.02495 0.01246,-0.0686 0,-0.09355 -0.01648,-0.03299 -0.04366,-0.113813 -0.07016,-0.140317 -2.65e-4,-2.64e-4 -0.232048,-0.09354 -0.23386,-0.09354"
           id="path7204" />
        <path
           style="fill:none;stroke:#000000;stroke-width:0.264583px;stroke-linecap:butt;stroke-linejoin:miter;stroke-opacity:1"
           d="m 32.26263,46.599739 c 0.112779,-0.21793 0.250188,-0.432806 0.396875,-0.628386 0.04084,-0.05445 0.10037,-0.0673 0.132292,-0.09922 0.02204,-0.02204 -0.02204,-0.0441 0,-0.06615 0.0078,-0.0078 0.02527,0.0078 0.03307,0 0.07801,-0.07801 0.107262,-0.198438 0.264583,-0.198438"
           id="path7210" />
        <path
           style="fill:none;stroke:#000000;stroke-width:0.264583px;stroke-linecap:butt;stroke-linejoin:miter;stroke-opacity:1"
           d="m 32.26263,46.802717 c 0.590968,-0.257583 0.724855,-0.237006 0.959115,0.23151"
           id="path7212" />
        <path
           style="fill:none;stroke:#000000;stroke-width:0.264583px;stroke-linecap:butt;stroke-linejoin:miter;stroke-opacity:1"
           d="m 33.61862,45.739843 c 0.06687,0.0063 0.123499,0.03694 0.181901,0.06615 0.04982,0.0249 0.09061,0.08241 0.132291,0.115755 0.02344,0.01876 0.214974,0.120269 0.214974,0.148828"
           id="path7214" />
        <path
           style="fill:none;stroke:#000000;stroke-width:0.264583px;stroke-linecap:butt;stroke-linejoin:miter;stroke-opacity:1"
           d="m 34.627344,45.975894 c -0.02204,0.0055 -0.04796,0.0029 -0.06615,0.01654 -0.232878,0.174657 -0.355222,0.454348 -0.529167,0.677995 -0.04268,0.05487 -0.100912,0.08437 -0.148828,0.132292 -0.01828,0.01828 -0.0434,0.06615 -0.06615,0.06615"
           id="path7216" />
        <path
           style="fill:none;stroke:#000000;stroke-width:0.264583px;stroke-linecap:butt;stroke-linejoin:miter;stroke-opacity:1"
           d="m 34.809245,46.202864 c 0.06504,0.0076 0.28085,0.04988 0.330729,0 0.0039,-0.0039 -0.0039,-0.01265 0,-0.01654 0.0082,-0.0082 0.215953,0 0.264583,0"
           id="path7218" />
      </g>
    </g>
  </g>
</svg>
